<svg xmlns="http://www.w3.org/2000/svg" id="S_Shuffle_18_N" width="18" height="18" viewBox="0 0 18 18"><defs><style>.fill{fill:#707070}</style></defs><rect id="Canvas" width="18" height="18" fill="#ff13dc" opacity="0"/><path d="M1.5,5H3.556L4.88,7.069l1.7-2.764L5.361,2.4a1,1,0,0,0-.8-.4H1.5a.5.5,0,0,0-.5.5v2A.5.5,0,0,0,1.5,5Z" class="fill" transform="translate(0 0)"/><path d="M13.6.1a.343.343,0,0,0-.244-.1A.35.35,0,0,0,13,.351V2H10.5a1,1,0,0,0-.8.4L3.556,12H1.5a.5.5,0,0,0-.5.5v2a.5.5,0,0,0,.5.5H4.559a1,1,0,0,0,.8-.4L11.515,5H13V6.649A.35.35,0,0,0,13.353,7a.343.343,0,0,0,.244-.1L16.44,3.662a.249.249,0,0,0,0-.324Z" class="fill" transform="translate(0 0)"/><path d="M13.6,10.1a.343.343,0,0,0-.244-.1.35.35,0,0,0-.353.351V12H11.515L10.153,9.876l-1.7,2.768L9.7,14.6a1,1,0,0,0,.8.4H13v1.649a.35.35,0,0,0,.353.351.343.343,0,0,0,.244-.1l2.843-3.235a.249.249,0,0,0,0-.324Z" class="fill" transform="translate(0 0)"/></svg>